<?xml version="1.0"?><svg width="640" height="480" xmlns="http://www.w3.org/2000/svg">
 <title>A Purple Purple Swirl</title>
 <metadata id="metadata2838">image/svg+xml</metadata>
 <g>
  <title>Layer 1</title>
  <g id="layer1">
   <g id="g2929">
    <path fill="#782589" fill-rule="evenodd" id="path5" d="m253.789001,173.449997c-10.574997,-15.011002 -9.585999,-36.533997 6.463013,-51.965996c16.048981,-15.431999 42.987,-15.089005 59.524994,7.245995c16.802979,22.697998 16.009979,61.865997 -8.989014,85.95401c-25.007996,24.098999 -66.526993,22.462997 -90.751999,-12.807007c-23.638,-34.419006 -20.83699,-91.330002 15.403,-126.170403c36.201019,-34.800797 97.34201,-34.820396 135.854004,15.236305c39.971008,51.946106 39.529999,143.629105 -19.065002,200.148102c-37.45401,36.143005 -205.572998,77.963989 -300.986507,-0.713989l-0.0392,-1.107025c101.572674,80.07901 259.448711,22.688019 293.368725,-10.026978c53.07196,-51.183014 53.688904,-134.248016 17.585999,-181.494614c-34.90802,-45.679699 -90.56601,-45.787498 -123.555054,-14.071098c-33.019012,31.745697 -35.496002,83.603706 -13.934006,114.899696c22.050995,32 59.759964,33.430008 82.457962,11.564011c22.688049,-21.866013 23.452087,-57.420013 8.216095,-78.062012c-15.012115,-20.337997 -39.511017,-20.680992 -54.111115,-6.638992c-14.599945,14.052002 -15.500946,33.302994 -5.864944,46.953003c9.722946,13.786987 9.116043,16.235001 -1.576996,1.056992l0,0l0.000015,0l0.000015,0l0.000015,0z" clip-rule="evenodd"/>
    <path fill="#782589" fill-rule="evenodd" id="path7" d="m358.749542,365.774078c-1.498169,9.145752 4.523895,20.328186 15.216766,23.755371c10.683075,3.417419 22.815369,-2.69278 25.410217,-16.440735c2.634094,-13.973175 -6.325592,-31.530243 -22.981812,-36.955017c-16.714935,-5.434601 -35.30014,4.484711 -38.531525,25.880249c-3.143219,20.856964 10.751617,46.012604 34.918274,53.689545c24.05896,7.647583 51.691986,-5.894775 58.154755,-36.925659c6.697693,-32.23526 -13.522797,-73.665222 -52.553711,-86.522125c-25.077332,-8.264435 -44.759247,-4.053864 -63.334686,11.877716l5.062469,5.894775c16.871643,-14.364868 34.693054,-18.154358 57.400726,-10.683075c35.358917,11.623138 53.797241,49.106903 47.814362,78.375214c-5.787079,28.289063 -30.923187,40.666168 -52.857239,33.684509c-22.022217,-7.001312 -34.6539,-29.94397 -31.755493,-48.920868c2.96701,-19.427338 19.848389,-28.406616 35.016235,-23.471436c15.118866,4.915558 23.275574,20.847168 20.905914,33.547394c-2.340302,12.504395 -13.375885,18.07605 -23.089539,14.962189c-9.743042,-3.113861 -15.216766,-13.297546 -13.845917,-21.620728c1.380676,-8.400574 0.558136,-9.379791 -0.949799,-0.127319z" clip-rule="evenodd"/>
    <path fill="#782589" fill-rule="evenodd" id="path9" d="m228.791046,358.793335c-5.98291,0.822571 -11.818954,6.746704 -11.936432,14.110321c-0.127304,7.35376 5.973114,13.787109 15.020935,12.768738c9.194672,-1.037933 18.457901,-10.0466 18.692917,-21.532623c0.244797,-11.515381 -9.419907,-21.258423 -23.353943,-19.162933c-13.601089,2.036774 -26.653809,15.598633 -26.88884,32.225494c-0.235001,16.558258 13.385681,31.265869 33.939102,29.336853c21.346558,-1.997589 43.349167,-22.658722 44.01506,-49.596527c0.430847,-17.312256 -5.88501,-28.837433 -19.309875,-37.415222l-2.712341,4.308472c12.122498,7.814026 17.831238,18.252289 17.449341,33.919525c-0.597321,24.411438 -20.475067,43.192505 -39.843674,45.07254c-18.702713,1.82132 -31.13855,-11.554535 -30.923126,-26.653809c0.225204,-15.148224 12.14209,-27.486176 24.509384,-29.327057c12.661041,-1.880035 21.424881,6.971924 21.209473,17.429779c-0.215424,10.428497 -8.607178,18.614594 -16.969559,19.564392c-8.225281,0.94986 -13.777344,-4.895966 -13.669617,-11.593719c0.117508,-6.697723 5.434555,-12.093109 10.869125,-12.837311c5.493301,-0.754974 5.95256,-1.450195 -0.097931,-0.616913z" clip-rule="evenodd"/>
    <path fill="#782589" fill-rule="evenodd" id="path11" d="m184.823975,299.816101c2.496964,-3.388 2.359879,-9.165283 -1.282761,-12.758972c-3.632828,-3.583862 -9.821365,-3.613251 -13.708801,1.410065c-3.946167,5.11142 -3.926575,14.071106 1.723404,19.711304c5.669571,5.649994 15.255936,5.473724 20.974472,-2.526337c5.581451,-7.794434 5.121216,-20.847168 -3.113861,-28.94516c-8.195908,-8.058807 -22.208267,-8.284058 -31.2267,2.947388c-9.361145,11.662262 -9.684296,32.607361 3.515335,45.875549c8.479874,8.519012 17.341629,10.878906 28.161789,8.264465l-0.842117,-3.437012c-9.811569,2.340302 -17.831223,0.186066 -25.508148,-7.520264c-11.965836,-12.005005 -11.730835,-30.981903 -3.260742,-41.596436c8.176315,-10.262024 20.935303,-10.075958 28.406586,-2.722168c7.500702,7.373383 7.902161,19.27066 2.810318,26.360077c-5.209351,7.246063 -13.914444,7.392944 -19.055237,2.271729c-5.131012,-5.11142 -5.160385,-13.248596 -1.576523,-17.89978c3.525131,-4.582642 9.155533,-4.56308 12.465225,-1.292542c3.309708,3.270538 3.436996,8.528839 1.165253,11.613312c-2.291321,3.113861 -2.164047,3.681793 0.352509,0.244781z" clip-rule="evenodd"/>
    <path fill="#782589" fill-rule="evenodd" id="path13" d="m287.748688,204.079697c5.532501,-5.884995 13.317139,-26.095673 12.817749,-37.522934c-0.753998,-17.233932 -9.77243,-19.084625 -18.546051,-18.830032c-11.750397,0.332932 -14.550903,3.319489 -14.120087,12.005005c0.723633,14.403061 28.013947,32.684723 19.848389,44.347961z" clip-rule="evenodd"/>
    <path fill="#782589" fill-rule="evenodd" id="path15" d="m348.242706,213.626923c4.151825,11.339127 -9.713654,42.037048 -20.719879,54.365204c-16.30368,18.252289 -30.59021,16.009918 -39.471527,7.794434c-11.77002,-10.898499 -12.073578,-16.636627 -4.161652,-25.743195c13.307343,-15.324493 62.405426,-15.501709 64.353058,-36.416443z" clip-rule="evenodd"/>
    <path fill="#782589" fill-rule="evenodd" id="path17" d="m350.465515,80.700478c-6.815247,-4.22036 -19.535065,-21.620747 -22.022217,-32.636738c-3.711182,-16.4212 3.2901,-23.814159 11.515381,-25.77256c10.947449,-2.594879 23.275604,3.12365 16.215576,7.618181c-14.031982,8.9303 -16.568085,41.673777 -5.70874,50.791117z" clip-rule="evenodd"/>
    <path fill="#782589" fill-rule="evenodd" id="path19" d="m372.076477,93.18528c-4.876465,-3.045311 -13.963409,-15.588867 -15.745544,-23.539978c-2.64386,-11.838531 2.359833,-17.175163 8.235046,-18.58522c7.823822,-1.87027 16.636597,2.252159 11.583954,5.493317c-10.026031,6.44215 -11.838531,30.06144 -4.073456,36.631882z" clip-rule="evenodd"/>
    <path fill="#782589" fill-rule="evenodd" id="path21" d="m430.368256,364.91333c-1.194611,3.4664 -0.567963,13.41507 1.860474,18.154388c3.642609,7.128601 8.460297,7.745514 12.024597,5.982941c4.729523,-2.32074 7.363556,-8.049042 3.485901,-7.598602c-7.755219,0.909637 -18.555786,-10.16507 -17.370972,-16.538727z" clip-rule="evenodd"/>
    <path fill="#782589" fill-rule="evenodd" id="path23" d="m168.911972,273.534393c2.242386,-0.332947 7.451721,-3.348877 9.282822,-5.796875c2.643829,-3.554474 1.694016,-6.022064 -0.097916,-7.323425c-2.379471,-1.723419 -5.982925,-1.674438 -4.758911,0.088135c2.457779,3.562317 -0.577744,11.896271 -4.425995,13.032166z" clip-rule="evenodd"/>
    <path fill="#782589" fill-rule="evenodd" id="path25" d="m407.298309,229.175629c16.107788,2.869064 59.026154,-6.110199 77.768036,-19.300034c27.917053,-19.63295 27.476379,-40.245117 17.792084,-54.345612c-12.935242,-18.830017 -20.81778,-20.318405 -34.810547,-10.643906c-23.471436,16.226318 -31.86319,85.259949 -60.749573,84.289551z" clip-rule="evenodd"/>
    <path fill="#782589" fill-rule="evenodd" id="path27" d="m381.476776,272.839142c9.703888,9.135956 43.182739,22.090759 62.051941,21.356354c28.17157,-1.09668 37.131256,-15.579071 36.729767,-29.669739c-0.528748,-18.741913 -5.317047,-23.256012 -19.309814,-22.786011c-23.412689,0.802948 -60.171875,44.622162 -79.471893,31.099396z" clip-rule="evenodd"/>
    <path fill="#782589" fill-rule="evenodd" id="path29" d="m384.247894,102.418159c0,-3.074692 2.487183,-5.561859 5.552094,-5.561859c3.06488,0 5.552032,2.487167 5.552032,5.561859c0,3.074684 -2.487152,5.561867 -5.552032,5.561867c-3.064911,0 -5.552094,-2.486206 -5.552094,-5.561867z" clip-rule="evenodd"/>
    <path fill="#782589" fill-rule="evenodd" id="path31" d="m394.177002,117.791611c0,-3.074692 2.487183,-5.561859 5.552032,-5.561859c3.064941,0 5.552094,2.487167 5.552094,5.561859c0,3.074677 -2.487152,5.561836 -5.552094,5.561836c-3.06485,0 -5.552032,-2.486168 -5.552032,-5.561836z" clip-rule="evenodd"/>
    <path fill="#782589" fill-rule="evenodd" id="path33" d="m396.644592,136.828232c0,-3.074677 2.487183,-5.561859 5.552032,-5.561859c3.064941,0 5.552094,2.487183 5.552094,5.561859c0,3.074692 -2.487152,5.561859 -5.552094,5.561859c-3.06485,0 -5.552032,-2.488144 -5.552032,-5.561859z" clip-rule="evenodd"/>
    <path fill="#782589" fill-rule="evenodd" id="path35" d="m252.770691,408.037354c1.635269,1.733185 1.556915,4.465118 -0.166458,6.090607c-1.723404,1.625458 -4.445572,1.54715 -6.080841,-0.195831c-1.635254,-1.733154 -1.566727,-4.455353 0.156677,-6.080841c1.73317,-1.635254 4.455368,-1.547119 6.090622,0.186066z" clip-rule="evenodd"/>
    <path fill="#782589" fill-rule="evenodd" id="path37" d="m237.945602,414.528442c1.635254,1.733185 1.5569,4.465179 -0.166473,6.090637c-1.723404,1.625488 -4.445572,1.537384 -6.080826,-0.195831c-1.635269,-1.733185 -1.566727,-4.455383 0.166458,-6.090607c1.723373,-1.624512 4.445572,-1.537384 6.080841,0.195801z" clip-rule="evenodd"/>
    <path fill="#782589" fill-rule="evenodd" id="path39" d="m223.071548,411.365631c1.635254,1.733185 1.566727,4.455383 -0.156677,6.080841c-1.734161,1.635284 -4.455368,1.54715 -6.090622,-0.186035c-1.635269,-1.733185 -1.556946,-4.465179 0.166458,-6.090637c1.72438,-1.624481 4.445557,-1.546173 6.080841,0.195831z" clip-rule="evenodd"/>
    <path fill="#782589" fill-rule="evenodd" id="path41" d="m468.684357,297.142914c1.635254,1.733185 1.556915,4.465149 -0.166473,6.090637c-1.723419,1.625458 -4.445557,1.547119 -6.080841,-0.195862c-1.635254,-1.733185 -1.566711,-4.455353 0.156677,-6.080811c1.733215,-1.635284 4.455353,-1.54715 6.090637,0.186035z" clip-rule="evenodd"/>
    <path fill="#782589" fill-rule="evenodd" id="path43" d="m453.859253,303.634033c1.635284,1.733185 1.556946,4.465149 -0.166443,6.090637c-1.723419,1.625458 -4.445557,1.537323 -6.080841,-0.195862c-1.635284,-1.733185 -1.566711,-4.455383 0.166473,-6.090637c1.723358,-1.624481 4.445557,-1.537323 6.080811,0.195862z" clip-rule="evenodd"/>
    <path fill="#782589" fill-rule="evenodd" id="path45" d="m438.985199,300.471222c1.635254,1.733185 1.566711,4.455353 -0.156677,6.080811c-1.734161,1.635284 -4.455353,1.54715 -6.090637,-0.186035c-1.635223,-1.733185 -1.556915,-4.465149 0.166504,-6.090637c1.724335,-1.624481 4.445526,-1.546143 6.080811,0.195862z" clip-rule="evenodd"/>
    <path fill="#782589" fill-rule="evenodd" id="path47" d="m144.941162,301.852875c-1.948608,0.665863 -4.044098,-0.313354 -4.680603,-2.19342c-0.636459,-1.880066 0.421066,-3.936371 2.36969,-4.602234c1.938797,-0.665863 4.034302,0.32312 4.670776,2.203186c0.646271,1.869293 -0.411255,3.925629 -2.359863,4.592468z" clip-rule="evenodd"/>
    <path fill="#782589" fill-rule="evenodd" id="path49" d="m145.294647,288.281128c-1.948608,0.656067 -4.044098,-0.32312 -4.680588,-2.203186c-0.636475,-1.87027 0.421066,-3.936371 2.369675,-4.592468c1.938812,-0.665833 4.034302,0.313354 4.670792,2.193451c0.645279,1.870239 -0.412262,3.93634 -2.359879,4.602203z" clip-rule="evenodd"/>
    <path fill="#782589" fill-rule="evenodd" id="path51" d="m153.176224,277.949585c-1.948608,0.665863 -4.044098,-0.32312 -4.680588,-2.19339c-0.636475,-1.880066 0.421066,-3.936401 2.36969,-4.602264c1.938812,-0.665863 4.034302,0.313354 4.670761,2.19342c0.646286,1.881073 -0.411255,3.936371 -2.359863,4.602234z" clip-rule="evenodd"/>
    <path fill="#782589" fill-rule="evenodd" id="path53" d="m508.89032,196.275482c2.222778,0.587524 3.622986,2.87886 3.153015,5.140793c-0.479828,2.271759 -2.683014,3.672012 -4.925385,3.10408c-2.261932,-0.558136 -3.691559,-2.888641 -3.1922,-5.179977c0.510162,-2.28154 2.731995,-3.652405 4.964569,-3.064896z" clip-rule="evenodd"/>
    <path fill="#782589" fill-rule="evenodd" id="path55" d="m500.469208,209.749283c2.301117,0.548355 3.750336,2.888641 3.24115,5.228928c-0.509216,2.359863 -2.800507,3.848267 -5.131042,3.329285c-2.34024,-0.528763 -3.818878,-2.908218 -3.280304,-5.287689c0.538574,-2.370636 2.859253,-3.828659 5.170197,-3.270523z" clip-rule="evenodd"/>
    <path fill="#782589" fill-rule="evenodd" id="path57" d="m486.084717,215.545166c2.408844,0.538559 3.907013,2.937592 3.348907,5.356232c-0.558167,2.438217 -2.976807,4.004913 -5.424774,3.485947c-2.457794,-0.528778 -3.985382,-2.957184 -3.397858,-5.414978c0.587555,-2.447983 3.045319,-3.984375 5.473724,-3.4272z" clip-rule="evenodd"/>
    <path fill="#782589" fill-rule="evenodd" id="path59" d="m433.658356,400.496521c2.261932,0.812714 3.476166,3.280304 2.712402,5.503143c-0.773621,2.222748 -3.231354,3.368408 -5.493347,2.545898c-2.261932,-0.812775 -3.476135,-3.270569 -2.712372,-5.503143c0.763794,-2.222778 3.221588,-3.358643 5.493317,-2.545898z" clip-rule="evenodd"/>
    <path fill="#782589" fill-rule="evenodd" id="path61" d="m422.808838,412.922577c2.261932,0.812714 3.476105,3.280304 2.712341,5.503082c-0.77356,2.222778 -3.221558,3.358643 -5.493286,2.545929c-2.261932,-0.812714 -3.476196,-3.280304 -2.712372,-5.503082c0.763763,-2.222778 3.221527,-3.368469 5.493317,-2.545929z" clip-rule="evenodd"/>
    <path fill="#782589" fill-rule="evenodd" id="path63" d="m407.386414,419.680023c2.261963,0.82254 3.476135,3.280365 2.712372,5.512909c-0.763763,2.222778 -3.221558,3.358643 -5.493317,2.545929c-2.261932,-0.812775 -3.476166,-3.280304 -2.712402,-5.503143c0.77356,-2.222778 3.231384,-3.368439 5.493347,-2.555695z" clip-rule="evenodd"/>
   </g>
  </g>
 </g>
</svg>